<svg width="177" height="139" viewBox="0 0 177 139" fill="none" xmlns="http://www.w3.org/2000/svg">
<path d="M59.6081 97.9863H145.714L102.661 23.102L59.6081 97.9863V97.9863ZM165.643 109.548H39.6802L102.661 7.62939e-06L165.644 109.548H165.643Z" fill="white"/>
<path d="M31.2861 97.9863H46.323L67.1647 61.7347L59.6465 48.6711L31.2861 97.9863V97.9863ZM52.9676 109.548H11.3564L59.6465 25.5476L80.4521 61.7347L52.9676 109.548Z" fill="white"/>
<path d="M121.508 55.493C116.42 50.3878 111.521 50.5594 104.735 50.7953C103.325 50.838 101.866 50.8811 100.36 50.8811C89.4652 50.8811 84.9545 40.3917 84.0935 34.8574L95.4544 33.0341C95.467 33.0984 96.5734 39.3407 100.36 39.3407C101.672 39.3407 102.968 39.2761 104.342 39.2334C112.161 38.9759 121.023 38.6757 129.646 47.3203L121.508 55.493V55.493Z" fill="white"/>
<path d="M1.24088 135.482H12.2086V138.807H1.24088V135.482V135.482ZM1.24088 128.06H10.8288V131.385H1.24088V128.06V128.06ZM1.24088 120.509H12.2086V123.834H1.24088V120.509V120.509ZM0 120.509H3.43429V138.807H0V120.509Z" fill="white"/>
<path d="M24.8979 139C24.8979 139 24.4812 138.914 23.6506 138.743C22.8196 138.571 22.0379 138.313 21.3074 137.971C20.5771 137.627 19.9235 137.22 19.3444 136.748L20.938 133.895C21.6406 134.474 22.4502 134.924 23.3687 135.225C24.2892 135.546 25.2312 135.697 26.2007 135.697C27.3221 135.697 28.1913 135.525 28.8088 135.139C29.426 134.753 29.7358 134.216 29.7358 133.509C29.7358 133.015 29.5989 132.629 29.3235 132.35C29.0457 132.05 28.6869 131.857 28.2447 131.707C27.8004 131.578 27.2323 131.471 26.5405 131.342H26.47L26.4016 131.321L26.1258 131.278C24.9064 131.085 23.896 130.849 23.0929 130.57C22.2898 130.27 21.6107 129.776 21.051 129.047C20.4893 128.318 20.2118 127.288 20.2118 125.958V125.936C20.2118 124.757 20.4743 123.749 20.9999 122.912C21.5252 122.075 22.2898 121.432 23.2938 120.981C24.2957 120.553 25.5066 120.316 26.9293 120.316C27.5805 120.316 28.2471 120.402 28.9283 120.553C29.6095 120.703 30.2761 120.917 30.9253 121.196C31.5789 121.496 32.1961 121.839 32.7813 122.247L31.327 125.164C30.6264 124.671 29.8938 124.285 29.1291 124.028C28.3622 123.749 27.6295 123.62 26.9293 123.62C25.876 123.62 25.0603 123.791 24.4836 124.135C23.9069 124.499 23.6186 124.993 23.6186 125.615C23.6186 126.151 23.7701 126.58 24.0713 126.88C24.3726 127.181 24.744 127.417 25.1863 127.545C25.6285 127.696 26.2521 127.846 27.0528 127.996L27.1533 128.017L27.2537 128.039L27.3991 128.082L27.5421 128.103C28.6954 128.339 29.6589 128.596 30.432 128.918C31.2051 129.261 31.8502 129.776 32.367 130.484C32.8862 131.213 33.1446 132.179 33.1446 133.423V133.444C33.1446 134.624 32.8732 135.611 32.3306 136.447C31.7883 137.284 30.9957 137.906 29.9537 138.357C28.9154 138.786 27.6639 139 26.2007 139C25.3316 139 24.8979 139 24.8979 139V139Z" fill="white"/>
<path d="M45.0457 139C45.0457 139 44.5521 138.743 43.5675 138.206C42.5806 137.67 41.8289 136.898 41.3122 135.868C40.793 134.86 40.5346 133.616 40.5346 132.179V127.159C40.5346 125.722 40.793 124.478 41.3122 123.47C41.8289 122.44 42.5806 121.668 43.5675 121.132C44.5521 120.595 45.7398 120.316 47.1281 120.316C48.2706 120.316 49.2939 120.574 50.1975 121.067C51.1006 121.561 51.8462 122.29 52.4334 123.234C53.0231 124.178 53.4309 125.315 53.6573 126.645H50.097C49.9646 126.044 49.7552 125.529 49.4774 125.1C49.1956 124.671 48.8582 124.349 48.4609 124.113C48.0657 123.877 47.6194 123.77 47.1281 123.77C46.483 123.77 45.9363 123.899 45.4855 124.178C45.0327 124.435 44.6889 124.821 44.4496 125.336C44.2126 125.829 44.0928 126.451 44.0928 127.159V132.179C44.0928 132.887 44.2126 133.509 44.4496 134.002C44.6889 134.517 45.0327 134.903 45.4855 135.16C45.9363 135.418 46.483 135.546 47.1281 135.546C47.6279 135.546 48.0806 135.439 48.48 135.225C48.8817 135.01 49.2191 134.667 49.4968 134.238C49.7702 133.809 49.9711 133.294 50.097 132.694H53.6573C53.4224 134.023 53.0125 135.16 52.4208 136.104C51.8332 137.048 51.0901 137.756 50.191 138.271C49.2939 138.764 48.2706 139 47.1281 139C45.7398 139 45.0457 139 45.0457 139Z" fill="white"/>
<path d="M62.7628 132.565H72.3508V135.89H62.7628V132.565ZM66.3851 120.509H68.5659L75.5332 138.807H71.8381L67.4744 126.323L63.1132 138.807H59.4157L66.3851 120.509Z" fill="white"/>
<path d="M84.4527 135.482H95.1321V138.807H84.4527V135.482ZM82.9235 120.509H86.3581V138.807H82.9235V120.509Z" fill="white"/>
<path d="M104.613 132.565H114.201V135.89H104.613V132.565ZM108.235 120.509H110.416L117.383 138.807H113.686L109.325 126.323L104.963 138.807H101.266L108.235 120.509V120.509Z" fill="white"/>
<path d="M126.728 122.011H130.162V138.807H126.728V122.011ZM121.764 120.509H135.126V123.834H121.764V120.509Z" fill="white"/>
<path d="M149.671 135.16C150.139 134.903 150.5 134.517 150.756 134.023C151.011 133.552 151.137 132.972 151.137 132.35V126.988C151.137 126.344 151.011 125.786 150.756 125.293C150.5 124.8 150.139 124.435 149.671 124.178C149.204 123.899 148.661 123.77 148.042 123.77C147.425 123.77 146.88 123.899 146.414 124.178C145.946 124.435 145.584 124.8 145.327 125.293C145.073 125.786 144.947 126.344 144.947 126.988V132.35C144.947 132.972 145.073 133.552 145.327 134.023C145.584 134.517 145.946 134.903 146.414 135.16C146.88 135.418 147.425 135.546 148.042 135.546C148.661 135.546 149.204 135.418 149.671 135.16ZM144.552 138.163C143.544 137.606 142.766 136.812 142.215 135.804C141.664 134.774 141.389 133.595 141.389 132.265V127.074C141.389 125.722 141.664 124.542 142.215 123.534C142.766 122.504 143.544 121.711 144.552 121.153C145.558 120.595 146.722 120.316 148.042 120.316C149.364 120.316 150.526 120.595 151.532 121.153C152.538 121.711 153.32 122.504 153.871 123.534C154.422 124.542 154.697 125.722 154.697 127.074V132.265C154.697 133.595 154.422 134.774 153.871 135.804C153.32 136.812 152.538 137.606 151.532 138.163C150.526 138.721 149.364 139 148.042 139C146.722 139 145.558 138.721 144.552 138.163Z" fill="white"/>
<path d="M168.416 130.892L172.088 130.312L177 138.807H172.842L168.416 130.892V130.892ZM164.582 128.125H170.924C171.274 128.125 171.583 128.039 171.848 127.867C172.117 127.695 172.324 127.438 172.47 127.116C172.617 126.773 172.694 126.409 172.703 125.979C172.703 125.55 172.63 125.164 172.483 124.843C172.337 124.521 172.13 124.264 171.863 124.092C171.594 123.92 171.282 123.834 170.924 123.834H164.582V120.509H171.199C172.201 120.509 173.083 120.724 173.843 121.174C174.604 121.625 175.193 122.269 175.61 123.105C176.028 123.92 176.237 124.885 176.237 125.979C176.237 127.074 176.028 128.017 175.61 128.854C175.193 129.669 174.601 130.312 173.837 130.763C173.072 131.235 172.194 131.449 171.199 131.449H164.582V128.125V128.125ZM163.215 120.509H166.649V138.807H163.215V120.509Z" fill="white"/>
</svg>
